HIERARCHY
ROOT joint_Root
{
	OFFSET 0.0 0.0 0.0
	CHANNELS 6 Xposition Yposition Zposition Zrotation Xrotation Yrotation 
	JOINT Hips
	{
		OFFSET 4.5925 91.4895 -427.239
		CHANNELS 6 Xposition Yposition Zposition Zrotation Xrotation Yrotation 
		JOINT Spine
		{
			OFFSET 15.7357 0.0 0.0
			CHANNELS 6 Xposition Yposition Zposition Zrotation Xrotation Yrotation 
			JOINT Chest
			{
				OFFSET 8.98455 -0.406207 0.0
				CHANNELS 6 Xposition Yposition Zposition Zrotation Xrotation Yrotation 
				JOINT Neck
				{
					OFFSET 16.3773 0.0 0.0
					CHANNELS 6 Xposition Yposition Zposition Zrotation Xrotation Yrotation 
					JOINT Head
					{
						OFFSET 6.45672 0.0 0.0
						CHANNELS 6 Xposition Yposition Zposition Zrotation Xrotation Yrotation 
						End Site
						{
							OFFSET 0.0 0.0 0.0
						}
					}
				}
				JOINT Shoulder_L
				{
					OFFSET 12.9942 -0.242716 4.98039
					CHANNELS 6 Xposition Yposition Zposition Zrotation Xrotation Yrotation 
					JOINT UpperArm_L
					{
						OFFSET 5.34809 0.0 0.0
						CHANNELS 6 Xposition Yposition Zposition Zrotation Xrotation Yrotation 
						JOINT LowerArm_L
						{
							OFFSET 24.3286 1.87007e-05 0.0
							CHANNELS 6 Xposition Yposition Zposition Zrotation Xrotation Yrotation 
							JOINT Hand_L
							{
								OFFSET 22.2916 0.0 0.0
								CHANNELS 6 Xposition Yposition Zposition Zrotation Xrotation Yrotation 
								End Site
								{
									OFFSET 0.0 0.0 0.0
								}
							}
						}
					}
				}
				JOINT Shoulder_R
				{
					OFFSET 12.9945 -0.242716 -4.98039
					CHANNELS 6 Xposition Yposition Zposition Zrotation Xrotation Yrotation 
					JOINT UpperArm_R
					{
						OFFSET -5.34813 0.0 0.0
						CHANNELS 6 Xposition Yposition Zposition Zrotation Xrotation Yrotation 
						JOINT LowerArm_R
						{
							OFFSET -24.3289 0.000322201 0.0
							CHANNELS 6 Xposition Yposition Zposition Zrotation Xrotation Yrotation 
							JOINT Hand_R
							{
								OFFSET -22.2915 -0.000108084 0.0
								CHANNELS 6 Xposition Yposition Zposition Zrotation Xrotation Yrotation 
								End Site
								{
									OFFSET 0.0 0.0 0.0
								}
							}
						}
					}
				}
			}
		}
		JOINT UpperLeg_L
		{
			OFFSET -2.19248 -6.46944 0.0
			CHANNELS 6 Xposition Yposition Zposition Zrotation Xrotation Yrotation 
			JOINT LowerLeg_L
			{
				OFFSET 39.0811 0.0 -1.23785e-05
				CHANNELS 6 Xposition Yposition Zposition Zrotation Xrotation Yrotation 
				JOINT Foot_L
				{
					OFFSET 40.9854 0.0 -1.26872e-05
					CHANNELS 6 Xposition Yposition Zposition Zrotation Xrotation Yrotation 
					JOINT Toes_L
					{
						OFFSET 11.7543 0.0 0.0
						CHANNELS 6 Xposition Yposition Zposition Zrotation Xrotation Yrotation 
						End Site
						{
							OFFSET 0.0 0.0 0.0
						}
					}
				}
			}
		}
		JOINT UpperLeg_R
		{
			OFFSET -2.19251 6.46944 0.0
			CHANNELS 6 Xposition Yposition Zposition Zrotation Xrotation Yrotation 
			JOINT LowerLeg_R
			{
				OFFSET -39.0811 -0.00228153 -0.0401928
				CHANNELS 6 Xposition Yposition Zposition Zrotation Xrotation Yrotation 
				JOINT Foot_R
				{
					OFFSET -40.9854 0.0 0.0
					CHANNELS 6 Xposition Yposition Zposition Zrotation Xrotation Yrotation 
					JOINT Toes_R
					{
						OFFSET -11.7543 0.0 0.0
						CHANNELS 6 Xposition Yposition Zposition Zrotation Xrotation Yrotation 
						End Site
						{
							OFFSET 0.0 0.0 0.0
						}
					}
				}
			}
		}
	}
}
MOTION
Frames:	7
Frame Time:	0.0333333
0.000000 0.000000 0.000000 0.000000 0.000000 -0.000000 115.670000 90.201700 155.375000 94.960300 -47.393900 7.270700 15.735700 0.000005 -0.000001 105.138000 83.961100 -105.341000 8.984550 -0.406207 -0.000000 3.903190 3.156520 -0.512581 16.377300 -0.000001 -0.000001 2.066870 -5.234380 3.105230 6.456720 -0.000001 -0.000000 -3.245210 -9.097070 10.949300 12.994200 -0.242716 4.980390 -91.373100 4.022190 -71.133900 5.348090 -0.000007 -0.000001 -74.816400 18.022100 7.593340 24.328600 0.000019 0.000005 6.079210 34.520600 -10.644100 22.291600 -0.000001 0.000005 6.035080 5.113900 4.790360 12.994500 -0.242716 -4.980390 88.383100 10.441200 -81.146800 -5.348130 -0.000001 -0.000004 -61.270400 36.496900 -22.624400 -24.328900 0.000322 -0.000009 2.584770 4.518890 -29.822300 -22.291500 -0.000108 -0.000004 16.426100 5.407840 -3.193910 -2.192480 -6.469440 -0.000000 -172.762000 -1.400120 -14.047400 39.081100 -0.000007 -0.000012 -0.012103 0.008752 54.142100 40.985400 -0.000006 -0.000013 2.817050 -7.385070 -59.894500 11.754300 -0.000000 0.000003 -0.006148 -0.072181 -19.514600 -2.192510 6.469440 -0.000001 -178.225000 25.237800 -176.816000 -39.081100 -0.002282 -0.040193 0.024795 -0.044138 25.954900 -40.985400 0.000008 0.000006 22.514400 19.489400 -75.726700 -11.754300 -0.000006 -0.000006 -1.072160 -1.243990 -20.698900
0.000000 0.000000 0.000000 0.000000 0.000000 -0.000000 114.315000 90.440600 156.615000 95.214800 -51.600100 6.617420 15.735700 0.000005 -0.000001 111.378000 83.901600 -111.867000 8.984550 -0.406207 -0.000000 3.620030 4.458030 -1.117620 16.377300 -0.000001 -0.000001 1.292210 -4.821840 2.638750 6.456720 -0.000001 -0.000000 -3.753100 -9.343550 10.375100 12.994200 -0.242716 4.980390 -91.249200 3.576760 -70.734100 5.348090 -0.000007 -0.000001 -74.210800 13.646000 9.395100 24.328600 0.000019 0.000005 4.361840 36.346100 -7.333680 22.291600 -0.000001 0.000005 6.993980 5.008740 7.131460 12.994500 -0.242716 -4.980390 88.668900 9.678750 -82.131000 -5.348130 -0.000001 -0.000004 -59.794300 38.523800 -25.960800 -24.328900 0.000322 -0.000009 2.938840 4.142600 -35.413300 -22.291500 -0.000108 -0.000004 16.717200 5.427420 -3.850330 -2.192480 -6.469440 -0.000000 -172.204000 3.505390 -14.761700 39.081100 -0.000007 -0.000012 -0.008455 0.008288 45.581800 40.985400 -0.000006 -0.000013 3.295530 -7.478260 -61.660300 11.754300 -0.000000 0.000003 -0.005878 -0.069728 -19.414500 -2.192510 6.469440 -0.000001 -178.941000 23.757900 -175.610000 -39.081100 -0.002282 -0.040193 0.010685 -0.016184 24.490500 -40.985400 0.000008 0.000006 22.980400 22.581500 -75.903400 -11.754300 -0.000006 -0.000006 -0.233575 -0.339853 -20.942500
0.000000 0.000000 0.000000 0.000000 0.000000 -0.000000 112.957000 90.504500 157.843000 95.056900 -55.346100 5.383970 15.735700 0.000005 -0.000001 116.513000 83.938300 -117.243000 8.984550 -0.406207 -0.000000 3.129750 5.435840 -1.607770 16.377300 -0.000001 -0.000001 0.489952 -4.437080 2.120260 6.456720 -0.000001 -0.000000 -4.494230 -9.559280 9.530550 12.994200 -0.242716 4.980390 -91.156500 3.269480 -70.507600 5.348090 -0.000007 -0.000001 -73.196000 10.619000 10.984200 24.328600 0.000019 0.000005 3.477530 36.759400 -5.798010 22.291600 -0.000001 0.000005 7.589450 4.945400 8.459510 12.994500 -0.242716 -4.980390 88.870900 9.165750 -82.946500 -5.348130 -0.000001 -0.000004 -58.019400 40.200800 -28.924700 -24.328900 0.000322 -0.000009 2.852420 3.312750 -40.781700 -22.291500 -0.000108 -0.000004 17.009800 5.440740 -4.311220 -2.192480 -6.469440 -0.000000 -170.792000 7.927250 -15.645700 39.081100 -0.000007 -0.000012 0.001115 -0.001508 36.428400 40.985400 -0.000006 -0.000013 4.450120 -6.257280 -62.919700 11.754300 -0.000000 0.000003 -0.005861 -0.069578 -19.408400 -2.192510 6.469440 -0.000001 -179.370000 22.315400 -174.927000 -39.081100 -0.002282 -0.040193 0.002218 0.002534 23.409700 -40.985400 0.000008 0.000006 23.304400 25.248400 -76.365600 -11.754300 -0.000006 -0.000006 -0.012641 -0.122413 -21.564200
0.000000 0.000000 0.000000 0.000000 0.000000 -0.000000 111.518000 90.443400 159.153000 94.618000 -58.272400 3.945150 15.735700 0.000005 -0.000001 119.765000 84.048200 -120.715000 8.984550 -0.406207 -0.000000 2.630010 5.947080 -2.034190 16.377300 -0.000001 -0.000001 -0.396725 -4.140790 1.626650 6.456720 -0.000001 -0.000000 -5.327570 -9.614080 8.465680 12.994200 -0.242716 4.980390 -91.145600 3.247900 -70.558900 5.348090 -0.000007 -0.000001 -71.924800 9.246590 12.384000 24.328600 0.000019 0.000005 3.695520 36.250400 -6.233560 22.291600 -0.000001 0.000005 7.582600 4.942390 8.521280 12.994500 -0.242716 -4.980390 89.002400 8.863560 -83.552100 -5.348130 -0.000001 -0.000004 -56.211200 41.550400 -31.292900 -24.328900 0.000322 -0.000009 3.100330 3.037370 -45.640100 -22.291500 -0.000108 -0.000004 17.341100 5.452270 -4.720760 -2.192480 -6.469440 -0.000000 -169.249000 9.866900 -16.721100 39.081100 -0.000007 -0.000012 0.003895 -0.007565 27.243400 40.985400 -0.000006 -0.000013 3.747860 -3.569800 -63.147600 11.754300 -0.000000 0.000003 -0.005675 -0.067860 -19.338300 -2.192510 6.469440 -0.000001 179.888000 22.186700 -174.064000 -39.081100 -0.002282 -0.040193 -0.005912 0.022389 22.401500 -40.985400 0.000008 0.000006 23.788700 28.341300 -77.311700 -11.754300 -0.000006 -0.000006 -0.015105 -0.138477 -22.223100
0.000000 0.000000 0.000000 0.000000 0.000000 -0.000000 109.974000 90.247400 160.613000 94.332000 -60.454800 2.802560 15.735700 0.000005 -0.000001 121.303000 84.194900 -122.532000 8.984550 -0.406207 -0.000000 2.232640 6.087380 -2.575620 16.377300 -0.000001 -0.000001 -1.292830 -4.019460 1.202800 6.456720 -0.000001 -0.000000 -6.243340 -9.633980 7.484710 12.994200 -0.242716 4.980390 -91.144800 3.286390 -70.782700 5.348090 -0.000007 -0.000001 -70.815000 9.546370 13.208000 24.328600 0.000019 0.000005 4.413810 35.354400 -7.598230 22.291600 -0.000001 0.000005 8.091060 4.965600 8.042880 12.994500 -0.242716 -4.980390 89.082900 8.720470 -83.973100 -5.348130 -0.000001 -0.000004 -54.718900 42.617700 -32.825800 -24.328900 0.000322 -0.000009 3.386050 2.869430 -49.776300 -22.291500 -0.000108 -0.000004 17.602900 5.460390 -5.015130 -2.192480 -6.469440 -0.000000 -168.246000 5.601060 -18.701300 39.081100 -0.000007 -0.000012 -0.277342 0.788984 19.368200 40.985400 -0.000006 -0.000013 -8.115660 2.907780 -58.229900 11.754300 -0.000000 0.000003 -0.005846 -0.069437 -19.402600 -2.192510 6.469440 -0.000001 178.720000 22.661800 -173.030000 -39.081100 -0.002282 -0.040193 -0.013164 0.041334 21.739800 -40.985400 0.000008 0.000006 24.393300 31.117200 -78.617800 -11.754300 -0.000006 -0.000006 -0.018102 -0.156542 -22.965500
0.000000 0.000000 0.000000 0.000000 0.000000 -0.000000 108.375000 89.936200 162.254000 95.545400 -61.863500 2.998590 15.735700 0.000005 -0.000001 121.084000 84.388300 -122.846000 8.984550 -0.406207 -0.000000 1.948820 5.880350 -3.621860 16.377300 -0.000001 -0.000001 -2.029590 -3.974440 0.842556 6.456720 -0.000001 -0.000000 -7.293280 -9.654890 6.740810 12.994200 -0.242716 4.980390 -91.195100 3.499810 -71.133600 5.348090 -0.000007 -0.000001 -69.536300 10.300300 12.956500 24.328600 0.000019 0.000005 5.145430 34.465100 -9.041090 22.291600 -0.000001 0.000005 9.037500 4.988010 7.573670 12.994500 -0.242716 -4.980390 89.125400 8.774820 -84.285700 -5.348130 -0.000001 -0.000004 -53.686700 43.350500 -33.351500 -24.328900 0.000322 -0.000009 3.458720 2.612160 -52.991700 -22.291500 -0.000108 -0.000004 17.889100 5.464040 -5.149260 -2.192480 -6.469440 -0.000000 -171.821000 -2.767530 -22.513200 39.081100 -0.000007 -0.000012 -0.141720 0.448997 17.517800 40.985400 -0.000006 -0.000013 -10.999300 13.097100 -53.614000 11.754300 -0.000000 0.000003 -0.004840 -0.059913 -19.014400 -2.192510 6.469440 -0.000001 176.869000 22.669900 -172.166000 -39.081100 -0.002282 -0.040193 -0.019804 0.058568 21.543500 -40.985400 0.000008 0.000006 24.553000 32.857300 -80.035500 -11.754300 -0.000006 -0.000006 -0.020206 -0.168428 -23.454800
0.000000 0.000000 0.000000 0.000000 0.000000 -0.000000 106.458000 89.360100 164.108000 96.085300 -62.918200 3.022090 15.735700 0.000005 -0.000001 119.865000 84.509900 -121.991000 8.984550 -0.406207 -0.000000 1.871820 5.573670 -4.340560 16.377300 -0.000001 -0.000001 -2.657860 -4.003800 0.401772 6.456720 -0.000001 -0.000000 -8.157800 -9.636140 6.063550 12.994200 -0.242716 4.980390 -91.252300 3.746420 -71.502000 5.348090 -0.000007 -0.000001 -68.272000 10.914300 11.709200 24.328600 0.000019 0.000005 5.696380 33.672600 -10.198800 22.291600 -0.000001 0.000005 10.124500 5.007570 7.158090 12.994500 -0.242716 -4.980390 89.176400 8.631460 -84.528700 -5.348130 -0.000001 -0.000004 -53.405500 43.933900 -32.922700 -24.328900 0.000322 -0.000009 3.417670 2.408140 -54.880800 -22.291500 -0.000108 -0.000004 18.066100 5.467910 -5.292430 -2.192480 -6.469440 -0.000000 -175.394000 -7.706230 -27.243100 39.081100 -0.000007 -0.000012 -0.064525 0.155516 22.534000 40.985400 -0.000006 -0.000013 -8.257410 21.881100 -53.659100 11.754300 -0.000000 0.000003 -0.005140 -0.062824 -19.133100 -2.192510 6.469440 -0.000001 175.760000 21.215700 -171.204000 -39.081100 -0.002282 -0.040193 -0.021886 0.061987 22.126100 -40.985400 0.000008 0.000006 24.547600 32.528600 -80.945300 -11.754300 -0.000006 -0.000006 -0.024754 -0.192329 -24.441100
